<svg width="919" height="370" viewBox="0 0 919 370" fill="none" xmlns="http://www.w3.org/2000/svg">
<g id="HandShakeSymbol">
<path id="Vector" d="M5.99995 234H6.99995C11.4012 231.877 17.3632 234.272 21.9999 235.2C34.3444 237.669 46.6524 240.331 58.9999 242.8C97.3526 250.47 135.646 258.33 174 266C184.344 268.068 194.686 270.138 205 272.339C209.19 273.233 215.629 275.664 219.853 274.643C224.257 273.578 224.281 265.593 225 262C227.728 248.36 229.465 234.677 232.2 221C239.53 184.346 246.481 142.509 254.5 106C258 84.5 265 68 268 47C210.431 39.566 152.931 23.788 95.9999 12.4C80.3544 9.27 64.7294 5.756 48.9999 3.081C44.7019 2.35 36.5291 -1.12298 32.4189 0.643015C28.8814 2.16202 27.6508 9.71901 26.4243 13C21.4579 26.285 17.8105 40.251 14.3734 54C4.55983 93.254 -0.732512 135.537 1.0393 176C1.88511 195.316 5.60186 214.713 5.99995 234ZM649 52L659 103L680.8 214L693 279L844 249.551L889 240.6L913 237C922.664 160.595 921.901 75.968 890 4.00001L809 20.4L649 52ZM297.5 93C288 138 277 189 269 230L281 241H282C288.5 232 299.354 220.573 310.5 215C325.087 207.706 341.5 218.5 339 237C344.799 233.034 350.046 226.417 357 224.499C367.406 221.63 383.824 228.564 385.775 240C387.316 249.029 383.21 256.55 381 265C387.475 260.682 392.439 253.46 400 250.92C414.257 246.131 432.756 258.53 431.892 274C431.373 283.295 423.533 292.515 420 301C426.112 299.282 432.245 297.892 438 301.525C444.095 305.372 449.412 310.848 455 315.389C475.723 332.229 526.474 370.12 545 328C524.538 317.11 505.796 303.328 487 289.86C478.916 284.067 468.133 278.718 463 270L464 269C490.689 288.172 521.674 317.211 555 323.191C567.611 325.454 579.607 318.13 585.19 307C586.64 304.109 589.567 298.738 588.303 295.418C586.38 290.369 571.624 286.19 567 283.316C550.318 272.946 534.498 261.48 519 249.424C512.214 244.146 503.303 239.815 501 231C527.468 250.617 558.02 280.948 591 288.572C604.268 291.639 615.78 285.978 622.331 274C624.199 270.585 626.93 265.263 625.382 261.286C622 256 615.304 251.246 611 247.579C598.994 237.35 586.955 227.159 575 216.87C540.6 187.263 507.335 155.117 485 115C476.389 116.272 468.772 121.266 460 121.91C452.516 122.459 439.923 119.266 433.285 123.028C411.665 135.282 402.438 158.032 373.5 151C368.273 149.73 355.827 145.01 354.73 138.91C353.346 131.214 369.807 115.536 374.414 110C383.74 98.793 392.289 81.776 405 74.225C422.5 64.5 421 70.5 464 53C452.11 47.372 437.388 41.513 424 42.04C399.157 43.018 373.79 61.358 353 73.424C334.794 83.991 319.636 97.109 297.5 93ZM357 137V139C376.974 154.84 394.335 149.439 413.5 134.5C419.376 129.919 426.811 123.323 433.576 120.452C442.353 116.727 455.563 120.237 465 118.535C478.582 116.087 489.579 108.048 501 101L487 113C490.846 125.069 501.585 136.929 509.127 147C532.008 177.556 560.156 201.583 589 226.271L616 249.421C619.425 252.339 624 256.5 628 258.608C634.192 260.314 642.957 253.466 649.5 252.5L620.5 101C606.834 101.649 599.366 94.88 588 88.283C566.678 75.907 546.421 59.407 523 51.089C495.712 41.399 465.5 56.553 430.5 67C421.5 69.6864 410.208 72.172 403.004 78.225C384.47 93.794 371.701 117.874 357 137Z" fill="white"/>
<path id="Vector_2" d="M265 73L247 160L230 246L262 252L297 80L265 73Z" fill="white"/>
<path id="Vector_3" d="M620.803 87L628 123L644.804 210L653.803 260C659.953 259.735 678.27 259.645 682 254.5C684.158 251.523 684.307 248.5 683 241C681.11 230.156 678.703 218 676.803 208.5C668.447 166.713 655.803 110.5 650.303 83L620.803 87Z" fill="white"/>
<path id="Vector_4" d="M448 121.5V122H458L448 121.5Z" fill="white"/>
<path id="Vector_5" d="M312 270C304.636 293.038 327.412 315.84 350 303C344.722 331.447 374.166 337.944 395 332C384.829 352.292 417.174 374.778 433.61 360.2C446.395 348.86 456.145 304.187 429 303.199C418.396 302.813 412.532 314.297 405 320C411.409 304.61 427.073 290.309 427.895 273C428.761 254.785 406.761 248.561 394 257.786C382.859 265.839 374.789 277.749 364 286C370.811 274.161 381.038 263.276 382.815 249C384.558 234.996 369.794 223.037 356 227.703C345.874 231.128 341.622 242.941 333 248C339.725 232.811 334.214 210.631 313 216.434C304.496 218.76 286.707 236.33 282.573 244.17C273.097 262.139 296.861 276.388 312 270Z" fill="white"/>
<path id="Vector_6" d="M447.5 314C451.5 328 449.5 344.5 440 360C450.855 365.781 468.186 371.916 480.5 368.2C485.878 366.577 493.622 360.528 492.968 354.089C492.536 349.828 488.5 345.5 482.5 341C472.801 332.95 456 320.5 447.5 314Z" fill="white"/>
</g>
</svg>
