<svg width="102" height="83" viewBox="0 0 102 83" fill="none" xmlns="http://www.w3.org/2000/svg">
<path d="M6.31804 18.5789V19.2285V45.5301L26.9209 49.4647C27.3221 48.4604 28.1494 47.9695 28.9127 48.1208C30.0603 48.3484 30.3652 49.3778 30.3756 49.8856C30.0653 51.3344 29.7562 52.7863 29.4824 54.0342C29.2585 55.118 30.0398 56.5782 31.0604 56.9162C32.1925 57.2912 33.0079 57.1109 33.7639 56.4184C33.5524 57.5227 34.1558 59.0094 35.4767 59.4645C36.8659 59.9735 37.8316 59.4759 38.3111 59.0538C38.3346 59.341 38.3157 59.493 38.4662 59.9839C38.7155 60.7977 39.2505 61.7822 40.3559 62.1394C41.4535 62.4939 42.4104 62.0929 43.0208 61.63C43.1906 61.5012 43.1596 61.4777 43.2865 61.3495C43.3413 61.6311 43.2793 61.6837 43.4415 62.0213C43.8463 62.8638 44.7828 63.7384 46.3721 63.6748C47.3174 63.637 48.0198 63.2247 48.4317 62.6266C48.7383 62.1814 48.8596 61.6242 49.0075 61.0764C49.756 61.3863 50.5846 61.8261 51.5025 62.1174C52.0442 62.2893 52.6047 62.4001 53.1708 62.3536C53.737 62.3071 54.3049 62.0851 54.7801 61.6374C55.8369 60.642 55.9462 59.5755 56.035 59.1054C56.3233 59.2271 56.8344 59.4615 57.8141 59.7034C59.0301 60.0038 60.5079 60.2362 61.5714 59.4967C62.1211 59.1145 62.6837 58.7278 62.9666 58.0129C63.1795 57.475 63.0348 56.6166 62.8854 55.7245C63.233 55.8349 63.4558 55.9403 64.1477 56.0197C65.2162 56.1425 66.5812 56.0703 67.381 55.0305C68.1212 54.0683 68.1108 52.9866 67.9125 52.2106C67.8385 51.9211 67.7942 51.9249 67.6984 51.716C67.9305 51.7349 67.9478 51.7732 68.2447 51.7539C69.0188 51.701 70.0211 51.4473 70.5183 50.5359C71.2653 49.1664 70.7214 48.1305 70.533 47.6569L73.8549 46.749L74.7333 51.1338L95.3214 47.1697V20.3512L69.2412 27.327L69.3849 28.3043C69.1698 28.4298 68.6441 28.7879 67.5414 29.1511C66.2589 29.5736 64.6634 29.8143 63.3928 29.2618C61.991 28.6524 59.0657 27.0985 56.129 25.7333C54.6607 25.0507 53.1852 24.4169 51.8697 23.9616C50.5541 23.5063 49.6287 23.3023 48.7173 23.3782C48.6102 23.3858 48.2335 23.3632 48.1196 23.3785L48.1121 23.371L48.0604 23.4012C46.4163 23.6249 44.201 24.3289 42.0442 25.1212C40.8796 25.549 39.7708 25.976 38.87 26.3097C37.9691 26.6434 37.2427 26.886 37.0023 26.9297C35.8129 27.1459 34.5101 27.1077 33.0383 26.7966L33.2736 25.9387L6.31804 18.5789Z" fill="#3E3E3E"/>
<path d="M8.96587 21.6719L8.43071 43.6776L14.2276 44.9179L19.2491 24.2754L8.96587 21.6719Z" fill="#7FC4F7"/>
<path d="M93.6553 22.7207L83.9639 25.207L88.7451 46.5605L93.9229 45.3593L93.6553 22.7207Z" fill="#36C07E"/>
<path d="M83.9639 25.207L70.8057 28.582C72.5139 35.7208 74.2497 43.114 75.7492 49.5722L88.7453 46.5605L83.9639 25.207Z" fill="#24A640"/>
<path d="M19.2491 24.2754L14.2276 44.9179L26.2745 47.4941C28.1912 40.882 29.4682 33.8927 31.5166 27.383L19.2491 24.2754Z" fill="#476BEA"/>
<path d="M48.6534 24.6543C48.6341 24.6581 48.5851 24.6733 48.5654 24.6771L48.55 24.6846C48.5367 24.6921 47.4878 25.1751 46.2101 25.8798C44.9244 26.5889 43.4231 27.5302 42.6515 28.3018C40.9905 29.9628 37.2105 34.3826 36.5109 35.3154C36.1831 35.7525 35.9355 36.3237 35.8898 36.872C35.8456 37.4022 35.9888 37.8979 36.3918 38.3487C37.6235 39.2791 38.8976 39.2725 39.8468 38.5342C40.9519 37.6747 47.9152 32.0381 47.9152 32.0381L48.2023 31.8076L69.7433 46.3369L73.5226 45.3467L69.7589 29.6377C69.4157 29.8312 68.9811 30.1197 67.9132 30.4716C66.5125 30.933 64.6894 31.264 63.0558 30.5537C61.5534 29.9005 58.6719 28.3602 55.7687 27.0107C54.3171 26.3358 52.8677 25.7109 51.6066 25.2744C50.3455 24.838 49.2572 24.6041 48.6534 24.6543ZM44.4541 25.8691C43.7011 26.1178 43.1767 26.1802 42.4229 26.457C41.2673 26.8815 40.1594 27.3094 39.2491 27.6465C38.3388 27.9837 37.6661 28.2282 37.212 28.3106C35.9303 28.5434 34.4415 28.5233 32.7823 28.162L27.7315 46.875C28.0115 46.7423 28.6501 46.6301 29.3534 46.8599C30.4656 47.2219 30.7668 47.9229 30.7959 48.4382C30.7659 47.7167 31.2238 47.0458 31.8955 46.3522C32.3048 45.9296 33.5296 45.9126 34.2345 46.0785C35.5019 46.3767 35.7225 46.9808 36.1182 47.6295C36.2258 47.8057 36.1805 47.8106 36.2452 47.9693C36.3663 47.8253 36.3452 47.8008 36.5108 47.6511C37.0458 47.1669 37.9124 46.6856 38.8565 47.0398C40.439 47.6332 41.3607 48.9342 41.1377 50.2723C41.1332 50.2987 41.1007 50.4412 41.0948 50.4714C41.8498 49.7591 42.4949 49.3918 43.7704 49.8972C45.2773 50.4942 45.5146 51.3379 45.4424 52.362C46.0506 51.5313 46.9114 51.2616 47.825 51.4508C48.9577 51.6855 49.7636 52.7158 50.044 53.7409L50.2256 53.756L56.1221 57.799C56.1361 57.8066 56.5403 58.0545 57.6475 58.3283C58.7631 58.6038 59.6713 58.8195 60.5616 58.4258C61.1709 58.1563 61.4335 57.8001 61.5948 57.3927C61.7457 57.0112 61.7273 56.285 61.4541 55.1192L50.9854 47.8712L51.5537 47.0528L62.1553 54.381C62.194 54.3961 63.3683 54.9281 64.2666 55.0313C65.1884 55.1371 65.8624 54.834 66.3252 54.2325C66.8478 53.5532 67.089 53.0521 66.9385 52.4629C66.7981 51.9133 66.5737 51.5836 66.5401 51.5333L54.3448 43.5528L54.8916 42.711L66.4502 50.3087C66.6359 50.3314 67.3516 50.532 67.7354 50.5059C68.3502 50.464 69.2621 50.2508 69.5225 49.7735C70.0316 49.3426 69.4679 47.4443 69.1826 47.3087L48.2549 33.0489C47.797 33.4193 41.5864 38.4463 40.46 39.3224C39.1465 40.3441 37.2752 40.324 35.7412 39.1386L35.7119 39.116L35.6827 39.0858C35.0465 38.4123 34.8288 37.5663 34.8936 36.7889C34.9584 36.0114 35.2821 35.2878 35.7119 34.7147C36.5276 33.6272 40.1941 29.3399 41.9424 27.5916C42.5627 26.9714 43.5433 26.4264 44.4541 25.8691ZM31.8526 48.121C31.5028 48.9455 31.4014 49.871 31.4014 49.871L30.5987 53.9198C30.447 54.5756 31.1564 55.4805 31.7354 55.7069C32.5946 56.0429 33.7288 55.2532 33.8819 55.1678L35.5733 48.9256C35.5663 48.8735 35.5337 48.5738 35.2705 48.1425C34.9854 47.675 34.8827 47.2215 33.8734 46.9842C32.8518 46.7072 32.213 47.3709 31.8526 48.121ZM38.1495 47.91C37.804 47.9138 37.4845 48.1134 37.1827 48.3866C36.7944 48.7378 36.5578 49.1317 36.5401 49.162L34.8057 55.5742C34.7543 56.8503 35.1798 58.0076 36.0557 58.2715C37.3372 58.6576 38.3346 57.9081 38.4073 57.8397C38.4505 57.6617 38.6897 56.421 39.1241 54.5956C39.5831 52.6666 40.0739 50.5531 40.1495 50.0996C40.2836 49.2948 39.7776 48.4506 38.503 47.9726C38.3818 47.9272 38.2646 47.9082 38.1495 47.91ZM40.7115 52.1289C40.5064 53.0525 40.4067 53.5373 40.0987 54.832C39.6491 56.7216 39.3711 58.1169 39.3526 58.1932C39.353 58.2273 39.3495 58.7696 39.544 59.4042C39.7444 60.0584 40.1122 60.6827 40.792 60.9023C41.5297 61.1408 42.089 60.8909 42.542 60.5489C42.9677 60.2261 43.1844 59.8846 43.2139 59.84L44.6748 53.1485C44.9106 52.5751 44.5735 51.2451 43.4084 50.7606C42.4372 50.2915 40.8918 51.3667 40.7115 52.1289ZM45.6495 53.3984L44.1885 60.0918C44.1887 60.1145 44.1859 60.7139 44.4678 61.3007C44.755 61.8984 45.2171 62.4365 46.462 62.3866C47.1758 62.3564 47.4689 62.1546 47.7315 61.7733C47.9894 61.3988 48.0414 61.0661 48.2256 60.33C48.2321 60.2804 48.9023 55.161 48.9854 54.33C49.0263 53.4678 48.6511 52.6793 47.6082 52.4541C46.4568 52.2054 45.7835 52.7957 45.6495 53.3984ZM49.9385 54.7792C49.8006 56.0092 49.3589 59.3301 49.2901 59.8574C50.1397 60.1964 51.0187 60.6524 51.8369 60.9121C52.3055 61.0606 52.7455 61.1336 53.1221 61.1033C53.4987 61.0731 53.817 60.951 54.1319 60.6541C54.9748 59.8601 54.9055 58.8443 54.9585 58.5813L49.9385 54.7792Z" fill="#FFCBA4"/>
</svg>
